<?xml version="1.0" encoding="UTF-8"?>
<!DOCTYPE svg  PUBLIC '-//W3C//DTD SVG 1.1//EN'  'http://www.w3.org/Graphics/SVG/1.1/DTD/svg11.dtd'>
<svg version="1.1" viewBox="0 0 512 424" xmlns="http://www.w3.org/2000/svg" xmlns:xlink="http://www.w3.org/1999/xlink">
<defs>
<path id="v" d="m33.3 226.59c0 61.83 24.73 119.22 69.53 161.69l2.33 2.33c1.54-1.4 2.39-2.18 2.57-2.33 6.53-6.07 13.29-11.43 20.29-16.57 34.07 30.1 78.87 48.53 127.86 48.53 49 0 93.8-18.43 127.86-48.53 7 5.14 13.77 10.5 20.3 16.57 0.17 0.15 1.03 0.93 2.57 2.33 1.4-1.4 2.17-2.18 2.33-2.33 45.03-42.47 69.76-100.1 69.76-161.69 0-122.73-100.09-222.59-222.82-222.59-122.72 0-222.58 99.86-222.58 222.59z"/>
<path id="b" d="m33.3 226.59c0 61.83 24.73 119.22 69.53 161.69l2.33 2.33c1.54-1.4 2.39-2.18 2.57-2.33 6.53-6.07 13.29-11.43 20.29-16.57 34.07 30.1 78.87 48.53 127.86 48.53 49 0 93.8-18.43 127.86-48.53 7 5.14 13.77 10.5 20.3 16.57 0.17 0.15 1.03 0.93 2.57 2.33 1.4-1.4 2.17-2.18 2.33-2.33 45.03-42.47 69.76-100.1 69.76-161.69 0-122.73-100.09-222.59-222.82-222.59-122.72 0-222.58 99.86-222.58 222.59zm100.79 140.92c26.13-17.5 55.53-29.16 86.56-34.06v56.69h52.96c9.57 0 17.27-7.69 17.27-17.26v-39.43c31.03 4.9 60.66 16.56 86.79 34.3-32.66 27.99-75.12 45.26-121.79 45.26-46.66 0-89.13-17.27-121.79-45.5zm121.79-327.34c102.9 0 186.42 83.53 186.42 186.42 0 53.66-22.86 101.96-59.03 136.02-27.76-18.9-59.03-31.26-92.16-36.39h-15.16v-10.27c0-12.37-8.87-21.93-20.53-21.93-11.67 0-20.07 9.1-20.07 21.93v10.27h-14.47c-33.13 5.13-64.62 17.49-92.16 36.39-36.39-34.06-59.26-82.36-59.26-136.02 0-102.89 83.53-186.42 186.42-186.42zm12.83 286.05h-26.36v-10.27c0-8.63 5.37-14.7 12.83-14.7 7.7 0 13.3 6.07 13.3 14.7v10.27h0.23zm15.17 7v39.43c0 5.6-4.67 10.26-10.27 10.26h-45.73v-49.46h56v-0.23zm105.23 33.59c37.09-35.23 60.43-85.16 60.43-140.22 0-106.86-86.8-193.66-193.66-193.66s-193.65 86.8-193.65 193.66c0 55.06 23.1 104.76 60.19 140.22-5.83 4.44-11.66 9.1-17.26 14-41.76-40.83-64.86-95.43-64.86-154.22 0-118.76 96.59-215.59 215.58-215.59s215.59 96.6 215.59 215.59c0 58.56-23.1 113.16-65.1 154.22-5.6-4.9-11.2-9.56-17.26-14z"/>
<path id="a" d="m255.88 350.71c-3.22 0-5.83 2.62-5.83 5.84s2.61 5.83 5.83 5.83 5.84-2.61 5.84-5.83-2.62-5.84-5.84-5.84z"/>
<path id="u" d="m200.35 102c-5.13 0-9.33 3.5-9.33 7.93s4.2 7.93 9.33 7.93c5.14 0 9.34-3.5 9.34-7.93s-4.2-7.93-9.34-7.93m0 21.23c-8.16 0-14.7-5.83-14.7-13.3s6.54-13.3 14.7-13.3c8.17 0 14.7 5.83 14.7 13.3-0.23 7.47-6.53 13.3-14.7 13.3"/>
<path id="c" d="m247.25 117.86v-10.96c0-2.57-2.33-4.67-5.13-4.67s-5.14 2.1-5.14 4.67v16.33c-3.03 0-5.36-2.33-5.36-5.37v-11.2c0-2.56-2.34-4.66-5.14-4.66s-5.13 2.1-5.13 4.66v10.97c0 3.03-2.33 5.37-5.37 5.37v-16.34c0-5.6 4.67-10.03 10.5-10.03 3.04 0 5.84 1.17 7.7 3.27 1.87-2.1 4.67-3.27 7.7-3.27 5.84 0 10.5 4.43 10.5 10.03 0.02 1.11 0.1 6.63 0.24 16.57-3.58-1.56-5.37-3.35-5.37-5.37z"/>
<path id="o" d="m270.11 123.23c-1.4 0-2.8 0-3.96-0.47-2.8-0.7-4.43-3.73-3.73-6.53 0-0.23 0.23-0.7 0.23-0.93 1.4 1.63 3.96 2.56 7.23 2.56 4.9 0 8.63-3.5 8.63-7.7 0-4.43-3.73-8.16-8.63-8.16-4.67 0-9.33 2.56-9.33 8.16v17.27c0 2.8-2.33 5.13-5.37 5.13v-22.4c0-7.7 6.07-13.53 14.47-13.53 3.73 0 7.23 1.4 9.8 3.73 2.56 2.57 4.2 5.84 4.2 9.57 0.46 7.47-5.84 13.3-13.54 13.3"/>
<path id="n" d="m307.91 91.73h-11.43v31.5h-0.23c-2.8 0-5.14-2.33-5.14-5.37v-26.13h-11.43c-2.8 0-5.13-2.33-5.13-5.37h38.73c0 2.8-2.33 5.37-5.37 5.37"/>
<path id="m" d="m334.28 108.53h14.23l-7.7-16.8 0.93 0.23-7.46 16.57zm19.36 11.2l-2.8-6.07h-18.9c-1.68 3.78-2.61 5.88-2.8 6.3-1.4 2.57-4.9 3.27-7.46 3.27 1.54-3.38 13.86-30.45 15.4-33.83 0.93-1.87 2.33-3.04 4.2-3.04 1.86 0 3.5 1.17 4.2 3.04 1.51 3.33 13.65 30.03 15.16 33.36-2.8 0.47-5.83-0.46-7-3.03"/>
<path id="h" d="m179.59 96.4c-2.8-3.04-7-5.14-11.67-5.14-8.16 0-14.93 6.07-14.93 13.3 0 7.47 6.77 13.54 14.93 13.54 3.97 0 7.7-1.4 10.5-3.97 1.87-1.63 4.9-1.4 6.77 0-1.4 2.33-3.5 4.2-5.84 5.6-3.5 2.1-7.23 3.27-11.43 3.27-11.2 0-20.3-8.4-20.3-18.67s9.1-18.67 20.3-18.67c7.93 0 15.17 4.44 18.43 10.97-2.1 1.63-4.9 1.63-6.76-0.23"/>
<path id="q" d="m363.91 118.8h-0.23s0.23 0.23 0.69 0.93c-0.23 0.23-0.46 0.23-0.69 0l-0.7-0.7h-0.7v-0.23c0-0.24 0.23-0.47 0.46-0.47h0.24 0.46s0.24 0 0.24-0.23c0 0 0-0.24-0.7-0.24h-0.94v1.87c0 0.23-0.23 0.47-0.46 0.47h-0.24v-2.34c0-0.23 0.24-0.46 0.47-0.46h1.17c1.16 0 1.39 0.7 1.39 0.93 0 0-0.23 0.47-0.46 0.47m-1.17-2.1c-1.16 0-2.1 0.93-2.1 1.86 0 1.17 0.94 1.87 2.1 1.87 1.17 0 2.33-0.93 2.33-1.87 0-0.93-1.16-1.86-2.33-1.86m0 4.43c-1.63 0-2.8-1.17-2.8-2.57s1.17-2.56 2.8-2.56 2.8 1.16 2.8 2.56-1.17 2.57-2.8 2.57"/>
<path id="p" d="m314.91 86.36v31.74c0 2.8 2.33 5.13 5.37 5.13v-31.73c0-2.8-2.34-5.14-5.37-5.14"/>
<path id="d" d="m6 147.03v116.42c0 10.74 8.86 19.6 19.6 19.6h480.4v-116.42c-0.23-10.97-8.87-19.6-19.6-19.6h-480.4z"/>
<path id="s" d="m123.82 229.39c0 11.43-8.86 18.2-21.46 18.2-9.33 0-17.97-3.27-25.2-9.57 0.63-0.75 5.67-6.72 6.3-7.46 5.83 4.89 11.43 7.93 19.13 7.93 6.54 0 10.74-3.04 10.74-7.7 0-4.43-2.34-6.77-13.54-9.33-12.83-3.04-20.06-7-20.06-18.2 0-10.5 8.63-17.5 20.53-17.5 8.87 0 15.86 2.56 21.93 7.7-0.56 0.79-5.04 7.14-5.6 7.93-5.36-3.97-10.96-6.3-16.33-6.3-6.3 0-9.8 3.27-9.8 7.23-0.23 4.44 2.57 6.54 14 9.34 12.83 3.03 19.36 7.7 19.36 17.73z"/>
<path id="t" d="m166.05 233.82c0.61 0.54 5.46 4.83 6.07 5.37-4.2 5.13-10.26 8.63-18.66 8.63-13.07 0-23.34-9.57-23.34-23.8 0-13.06 9.34-23.8 22.17-23.8 14.46 0 21.7 11.44 21.7 24.5 0 0.94 0 1.87-0.24 2.8h-33.13c1.17 7.47 6.3 11.67 13.07 11.67 5.13 0 8.63-1.87 12.36-5.37zm-13.53-24.96c-6.3 0-10.96 4.9-11.9 11.9h23.34c-3.12-7.94-6.93-11.9-11.44-11.9z"/>
<path id="e" d="m179.59 224.02c0-13.06 10.03-23.8 23.56-23.8 8.64 0 14 3.27 18.2 7.94-0.65 0.7-5.88 6.3-6.53 7-3.27-3.27-6.53-5.6-11.9-5.6-7.47 0-13.07 6.53-13.07 14.46 0 8.17 5.6 14.7 13.54 14.7 4.9 0 8.63-2.33 11.89-5.6l6.3 6.3c-4.2 4.67-9.56 8.17-18.43 8.17-13.53 0-23.56-10.5-23.56-23.57z"/>
<path id="r" d="m257.98 201.16h10.5v45.49h-10.5v-7c-3.03 4.2-7.23 7.94-14.23 7.94-10.27 0-16.1-7-16.1-17.5v-28.93h10.5v25.9c0 6.99 3.5 11.19 9.8 11.19 6.07 0 10.27-4.2 10.27-11.19v-25.9h-0.24z"/>
<path id="g" d="m278.98 246.65v-45.49h10.5v10.26c2.8-6.76 8.17-11.43 16.1-11.2v10.97h-0.7c-9.1 0-15.4 5.83-15.4 17.97v17.49h-10.5z"/>
<path id="l" d="m311.41 184.36h11.2v9.8h-11.2v-9.8zm0.47 16.8h10.5v45.49h-10.5v-45.49z"/>
<path id="j" d="m350.84 238.02c2.34 0 4.44-0.47 6.54-1.63v8.63c-2.57 1.4-5.6 2.33-9.34 2.33-7.7 0-13.06-3.26-13.06-13.3v-24.03h-5.84v-8.86h5.84v-12.6h10.5v12.6h12.13v8.86h-12.37v22.4c1.4 3.73 3.27 5.6 5.6 5.6z"/>
<path id="k" d="m375.81 260.65c-4.44 0-7.47-0.93-10.74-2.8l3.5-7.7c1.87 0.94 3.97 1.64 6.07 1.64 3.03 0 4.67-1.4 6.53-5.37-1.26-3.03-7.56-18.2-18.89-45.5h11.19l12.84 33.83 11.9-33.83h10.96l-18.43 46.9c-5.13 8.56-10.11 12.83-14.93 12.83z"/>
<path id="i" d="m439.27 195.09v16.57h16.57v9.56h-16.57v16.57h-9.8v-16.57h-16.56v-9.56h16.56v-16.57h9.8z"/>
<path id="f" d="m407.31 375.68h-0.24s0.24 0.23 0.7 0.93c-0.23 0.24-0.46 0.24-0.7 0l-0.7-0.7h-0.7v-0.23c0-0.23 0.24-0.47 0.47-0.47h0.23 0.47s0.23 0 0.23-0.23c0 0 0-0.23-0.7-0.23h-0.93v1.86c0 0.24-0.23 0.47-0.47 0.47h-0.23v-2.33c0-0.24 0.23-0.47 0.47-0.47h1.16c1.17 0 1.4 0.7 1.4 0.93 0 0-0.23 0.24-0.46 0.47m-1.17-2.33c-1.17 0-2.1 0.93-2.1 1.86 0 1.17 0.93 1.87 2.1 1.87s2.33-0.93 2.33-1.87c0-0.93-0.93-1.86-2.33-1.86m0 4.66c-1.63 0-2.8-1.16-2.8-2.56s1.17-2.57 2.8-2.57 2.8 1.17 2.8 2.57-1.17 2.56-2.8 2.56"/>
</defs>
<use fill="#ffffff" xlink:href="#v"/>
<use fill-opacity="0" stroke="#000000" stroke-opacity="0" xlink:href="#v"/>
<use fill="#6a747c" xlink:href="#b"/>
<use fill-opacity="0" stroke="#000000" stroke-opacity="0" xlink:href="#b"/>
<use fill="#6a747c" xlink:href="#a"/>
<use fill-opacity="0" stroke="#000000" stroke-opacity="0" xlink:href="#a"/>
<use fill="#e2231a" xlink:href="#u"/>
<use fill-opacity="0" stroke="#000000" stroke-opacity="0" xlink:href="#u"/>
<use fill="#e2231a" xlink:href="#c"/>
<use fill-opacity="0" stroke="#000000" stroke-opacity="0" xlink:href="#c"/>
<use fill="#e2231a" xlink:href="#o"/>
<use fill-opacity="0" stroke="#000000" stroke-opacity="0" xlink:href="#o"/>
<use fill="#e2231a" xlink:href="#n"/>
<use fill-opacity="0" stroke="#000000" stroke-opacity="0" xlink:href="#n"/>
<use fill="#e2231a" xlink:href="#m"/>
<use fill-opacity="0" stroke="#000000" stroke-opacity="0" xlink:href="#m"/>
<use fill="#e2231a" xlink:href="#h"/>
<use fill-opacity="0" stroke="#000000" stroke-opacity="0" xlink:href="#h"/>
<use fill="#e2231a" xlink:href="#q"/>
<use fill-opacity="0" stroke="#000000" stroke-opacity="0" xlink:href="#q"/>
<use fill="#e2231a" xlink:href="#p"/>
<use fill-opacity="0" stroke="#000000" stroke-opacity="0" xlink:href="#p"/>
<use fill="#e2231a" xlink:href="#d"/>
<use fill-opacity="0" stroke="#000000" stroke-opacity="0" xlink:href="#d"/>
<use fill="#ffffff" xlink:href="#s"/>
<use fill-opacity="0" stroke="#000000" stroke-opacity="0" xlink:href="#s"/>
<use fill="#ffffff" xlink:href="#t"/>
<use fill-opacity="0" stroke="#000000" stroke-opacity="0" xlink:href="#t"/>
<use fill="#ffffff" xlink:href="#e"/>
<use fill-opacity="0" stroke="#000000" stroke-opacity="0" xlink:href="#e"/>
<use fill="#ffffff" xlink:href="#r"/>
<use fill-opacity="0" stroke="#000000" stroke-opacity="0" xlink:href="#r"/>
<use fill="#ffffff" xlink:href="#g"/>
<use fill-opacity="0" stroke="#000000" stroke-opacity="0" xlink:href="#g"/>
<use fill="#ffffff" xlink:href="#l"/>
<use fill-opacity="0" stroke="#000000" stroke-opacity="0" xlink:href="#l"/>
<use fill="#ffffff" xlink:href="#j"/>
<use fill-opacity="0" stroke="#000000" stroke-opacity="0" xlink:href="#j"/>
<use fill="#ffffff" xlink:href="#k"/>
<use fill-opacity="0" stroke="#000000" stroke-opacity="0" xlink:href="#k"/>
<use fill="#ffffff" xlink:href="#i"/>
<use fill-opacity="0" stroke="#000000" stroke-opacity="0" xlink:href="#i"/>
<use fill="#6a747c" xlink:href="#f"/>
<use fill-opacity="0" stroke="#000000" stroke-opacity="0" xlink:href="#f"/>
</svg>
